<svg width="261" height="261" viewBox="0 0 261 261" fill="none" xmlns="http://www.w3.org/2000/svg">
<path d="M112.167 0.405402C59.2341 8.8054 17.2341 46.6721 3.36742 98.1387C-1.03258 114.539 -1.16591 145.739 3.23409 162.139C16.3008 211.205 55.2341 248.139 104.834 258.405C122.967 262.139 148.567 261.205 165.501 256.272C196.167 247.072 221.767 228.539 238.967 202.672C253.234 181.339 259.501 161.872 260.434 136.139C261.901 99.3387 250.434 67.6054 226.434 42.0054C213.501 28.2721 203.101 20.5387 186.834 12.6721C167.901 3.47207 156.034 0.672069 134.167 0.138736C124.301 -0.127931 114.434 0.00540245 112.167 0.405402ZM157.767 64.1387C158.034 64.9387 155.634 66.2721 152.567 67.0721C149.367 68.0054 145.367 70.2721 143.501 72.1387C140.167 75.6054 140.167 76.1387 139.767 101.605L139.367 127.472H153.901L173.767 95.0721L193.634 62.8054H209.501C227.234 62.8054 230.967 64.6721 218.701 67.3387C212.701 68.6721 210.034 70.2721 205.634 74.8054C200.567 80.0054 171.634 125.205 171.367 128.139C171.367 128.805 173.901 130.139 177.101 131.072C189.901 134.805 199.501 148.139 199.501 162.005C199.501 172.272 194.834 182.005 187.367 187.472C177.101 194.805 171.501 195.872 135.901 196.539C106.834 197.072 103.501 196.805 103.501 194.939C103.501 193.739 104.434 192.805 105.634 192.805C109.767 192.805 116.967 188.405 118.834 184.672C120.434 181.739 120.834 175.205 120.834 156.139V131.472H106.834L90.1674 158.405C81.1008 173.339 71.9008 188.005 69.7674 191.205L66.0341 196.939L50.5674 196.539C33.1008 196.139 29.7674 194.272 41.7674 191.605C52.1674 189.205 56.9674 184.139 73.5008 157.339C80.7008 145.739 87.5007 134.805 88.4341 133.339C90.1674 130.539 89.9008 130.272 84.0341 128.272C75.6341 125.472 69.6341 120.672 65.2341 113.072C62.0341 107.739 61.5008 105.339 61.5008 96.8054C61.5008 88.4054 62.0341 85.8721 65.1008 80.6721C70.7008 71.2054 81.7674 65.2054 97.5007 63.0721C106.301 61.8721 157.234 62.8054 157.767 64.1387Z" fill="#F7F7F7"/>
<path d="M107.501 71.0721C95.3674 73.0721 87.6341 80.0054 84.0341 92.2721C81.3674 101.739 82.4341 110.005 87.2341 115.605C91.9008 121.205 97.1008 123.205 110.034 124.272L120.834 125.205V70.1387L115.901 70.2721C113.101 70.4054 109.367 70.8054 107.501 71.0721Z" fill="#F7F7F7"/>
<path d="M139.501 189.205L148.701 188.405C158.967 187.605 163.767 185.605 168.967 179.872C179.501 168.672 181.101 152.405 172.701 142.805C167.901 137.472 163.634 135.872 149.901 134.672L139.501 133.872V189.205Z" fill="#F7F7F7"/>
</svg>
